<svg xmlns="http://www.w3.org/2000/svg" viewBox="0 0 440 340" width="440" height="340" fill="none">
<g transform="rotate(-7 174 132)">
      <rect x="126" y="85" width="108" height="108" rx="10" fill="#0a1a2b"></rect>
      <rect x="120" y="78" width="108" height="108" rx="10" fill="#d4ff47" stroke="#0a1a2b" stroke-width="2.5"></rect>
      <line x1="138" y1="112" x2="202" y2="112" stroke="#0a1a2b" stroke-width="4" stroke-linecap="round" opacity="0.55"></line><line x1="138" y1="134" x2="202" y2="134" stroke="#0a1a2b" stroke-width="4" stroke-linecap="round" opacity="0.55"></line><line x1="138" y1="156" x2="178" y2="156" stroke="#0a1a2b" stroke-width="4" stroke-linecap="round" opacity="0.55"></line>
    </g><g transform="rotate(5 268 98)">
      <rect x="220" y="51" width="108" height="108" rx="10" fill="#0a1a2b"></rect>
      <rect x="214" y="44" width="108" height="108" rx="10" fill="#ffffff" stroke="#0a1a2b" stroke-width="2.5"></rect>
      <line x1="232" y1="78" x2="296" y2="78" stroke="#0a1a2b" stroke-width="4" stroke-linecap="round" opacity="0.55"></line><line x1="232" y1="100" x2="296" y2="100" stroke="#0a1a2b" stroke-width="4" stroke-linecap="round" opacity="0.55"></line><line x1="232" y1="122" x2="272" y2="122" stroke="#0a1a2b" stroke-width="4" stroke-linecap="round" opacity="0.55"></line>
    </g><g transform="rotate(-4 306 204)">
      <rect x="258" y="157" width="108" height="108" rx="10" fill="#0a1a2b"></rect>
      <rect x="252" y="150" width="108" height="108" rx="10" fill="#ff4a1c" stroke="#0a1a2b" stroke-width="2.5"></rect>
      <line x1="270" y1="184" x2="334" y2="184" stroke="#ffffff" stroke-width="4" stroke-linecap="round" opacity="0.55"></line><line x1="270" y1="206" x2="334" y2="206" stroke="#ffffff" stroke-width="4" stroke-linecap="round" opacity="0.55"></line><line x1="270" y1="228" x2="310" y2="228" stroke="#ffffff" stroke-width="4" stroke-linecap="round" opacity="0.55"></line>
    </g><g transform="rotate(6 192 236)">
      <rect x="144" y="189" width="108" height="108" rx="10" fill="#0a1a2b"></rect>
      <rect x="138" y="182" width="108" height="108" rx="10" fill="#f6f1e7" stroke="#0a1a2b" stroke-width="2.5"></rect>
      <line x1="156" y1="216" x2="220" y2="216" stroke="#0a1a2b" stroke-width="4" stroke-linecap="round" opacity="0.55"></line><line x1="156" y1="238" x2="220" y2="238" stroke="#0a1a2b" stroke-width="4" stroke-linecap="round" opacity="0.55"></line><line x1="156" y1="260" x2="196" y2="260" stroke="#0a1a2b" stroke-width="4" stroke-linecap="round" opacity="0.55"></line>
    </g><g transform="rotate(10 366 120)">
      <rect x="318" y="73" width="108" height="108" rx="10" fill="#0a1a2b"></rect>
      <rect x="312" y="66" width="108" height="108" rx="10" fill="#ff4a1c" stroke="#0a1a2b" stroke-width="2.5"></rect>
      <line x1="330" y1="100" x2="394" y2="100" stroke="#ffffff" stroke-width="4" stroke-linecap="round" opacity="0.55"></line><line x1="330" y1="122" x2="394" y2="122" stroke="#ffffff" stroke-width="4" stroke-linecap="round" opacity="0.55"></line><line x1="330" y1="144" x2="370" y2="144" stroke="#ffffff" stroke-width="4" stroke-linecap="round" opacity="0.55"></line>
    </g>
</svg>