<svg xmlns="http://www.w3.org/2000/svg" viewBox="0 0 900 176" width="900" height="176" fill="none">
  <path d="M14 44 Q450 122 886 48" stroke="#0a1a2b" stroke-width="3"></path>
  <g transform="translate(118.6 60.5) rotate(7.8)">
    <line x1="0" y1="0" x2="0" y2="6" stroke="#0a1a2b" stroke-width="2.5"></line>
    <g transform="translate(-25 6)"><rect width="50" height="58" fill="#f6f1e7"></rect><rect x="13" y="15.08" width="24" height="27.84" fill="#0a1a2b"></rect><rect width="50" height="58" fill="none" stroke="#0a1a2b" stroke-width="2.5"></rect></g>
  </g><g transform="translate(284.3 77.8) rotate(4.1)">
    <line x1="0" y1="0" x2="0" y2="6" stroke="#0a1a2b" stroke-width="2.5"></line>
    <g transform="translate(-25 6)"><path d="M0 0 L50 0 L35 29 L50 58 L0 58 Z" fill="#0a1a2b"></path><rect width="25" height="58" fill="#f6f1e7"></rect><path d="M0 0 L50 0 L35 29 L50 58 L0 58 Z" fill="none" stroke="#0a1a2b" stroke-width="2.5"></path></g>
  </g><g transform="translate(450.0 84.0) rotate(0.3)">
    <line x1="0" y1="0" x2="0" y2="6" stroke="#0a1a2b" stroke-width="2.5"></line>
    <g transform="translate(-25 6)"><rect width="50" height="58" fill="#d4ff47"></rect><rect x="25" width="25" height="29" fill="#0a1a2b"></rect><rect y="29" width="25" height="29" fill="#0a1a2b"></rect><rect width="50" height="58" fill="none" stroke="#0a1a2b" stroke-width="2.5"></rect></g>
  </g><g transform="translate(615.7 79.3) rotate(-3.5)">
    <line x1="0" y1="0" x2="0" y2="6" stroke="#0a1a2b" stroke-width="2.5"></line>
    <g transform="translate(-25 6)"><clipPath id="vclip3"><rect width="50" height="58"></rect></clipPath><rect width="50" height="58" fill="#f6f1e7"></rect><g clip-path="url(#vclip3)"><path d="M0 0 L50 58 M50 0 L0 58" stroke="#ff4a1c" stroke-width="12"></path></g><rect width="50" height="58" fill="none" stroke="#0a1a2b" stroke-width="2.5"></rect></g>
  </g><g transform="translate(781.4 63.6) rotate(-7.3)">
    <line x1="0" y1="0" x2="0" y2="6" stroke="#0a1a2b" stroke-width="2.5"></line>
    <g transform="translate(-25 6)"><rect width="50" height="58" fill="#d4ff47"></rect><path d="M0 0 L50 0 L0 58 Z" fill="#ff4a1c"></path><rect width="50" height="58" fill="none" stroke="#0a1a2b" stroke-width="2.5"></rect></g>
  </g>
</svg>